# xmcd CD database file
#
# Track frame offsets:
#	182
#	9595
#	20750
#	29257
#	38467
#	50070
#	53707
#	63440
#	73260
#	84767
#	98197
#	110577
#	122060
#	131970
#	142855
#	152000
#	162495
#	169870
#	181127
#	192617
#	204147
#	213157
#	226362
#	236622
#	246447
#	255542
#	268117
#	278335
#	287655
#	295947
#	303485
#	313885
#	327892
#	338187
#
# Disc length: 4653 seconds
#
# Revision: 0
# Processed by: cddbd v1.5.2PL0 Copyright (c) Steve Scherf et al.
# Submitted via: CDex 1.50beta10
#
DISCID=f3122b22
DTITLE=Various Artist - Happy Swing - Kosinus
DYEAR=1995
DGENRE=Jazz
TTITLE0=Dolce Vita
TTITLE1=Mister Swing
TTITLE2=Happy Swing
TTITLE3=Sax lover
TTITLE4=Fifty Swing
TTITLE5=Darling
TTITLE6=High Society
TTITLE7=Picnic Party
TTITLE8=Swing Circus
TTITLE9=Bonjour Paris
TTITLE10=Taxi Boy
TTITLE11=Paris Swing
TTITLE12=Marie France
TTITLE13=Django Remix
TTITLE14=Sax Lover
TTITLE15=Lady Paname
TTITLE16=Gipsy Swing
TTITLE17=Femme Fatale
TTITLE18=Hot Swing
TTITLE19=Petit Bateau
TTITLE20=Lovely Swing
TTITLE21=Bikini Cha-Cha
TTITLE22=Paris Nostalgy
TTITLE23=Riverbop
TTITLE24=Swing Lover
TTITLE25=Menilmuche
TTITLE26=Rio Cabana
TTITLE27=Cherry Brandy
TTITLE28=Swingo
TTITLE29=Manouche
TTITLE30=Cine Swing
TTITLE31=Paris Plage
TTITLE32=Palace Hotel
TTITLE33=Palavas
EXTD=YEAR: 1995
EXTT0=
EXTT1=
EXTT2=
EXTT3=
EXTT4=
EXTT5=
EXTT6=
EXTT7=
EXTT8=
EXTT9=
EXTT10=
EXTT11=
EXTT12=
EXTT13=
EXTT14=
EXTT15=
EXTT16=
EXTT17=
EXTT18=
EXTT19=
EXTT20=
EXTT21=
EXTT22=
EXTT23=
EXTT24=
EXTT25=
EXTT26=
EXTT27=
EXTT28=
EXTT29=
EXTT30=
EXTT31=
EXTT32=
EXTT33=
PLAYORDER=
